{"title":"Stealth*2005*[BluRay][1080p][ENG, POL]","uid":5915695,"size":12139905725,"categoryP":"video","categoryS":"hd___movies","magnet":"?xt=urn:btih:1fb991a00268b34b63014f49671a96396a5bc624&amp;dn=Stealth%2A2005%2A%5BBluRay%5D%5B1080p%5D%5BENG%2C+POL%5D&amp;tr=udp%3A%2F%2Ftracker.openbittorrent.com%3A80&amp;tr=udp%3A%2F%2Fopen.demonii.com%3A1337&amp;tr=udp%3A%2F%2Ftracker.coppersurfer.tk%3A6969&amp;tr=udp%3A%2F%2Fexodus.desync.com%3A6969","seeders":2,"leechers":1,"uploader":"albedo040","files":1,"time":1288215634,"description":"Stealth*2005*[BluRay][1080p][ENG, POL]\n\nGeneral information:\nCountry: USA\nRelease: 27 July 2005\nGenre: Action, Adventure, Sci-Fi, Thriller \nDirector: Rob Cohen\nScreenplay: Rob Cohen, W.D. Richter\nOriginal Music: Randy Edelman \nCinematography by: Dean Semler\nDuration: 2h 0mn\nLanguage: English, Polish\nSubtitles: English, Polish\nRating: 6.2/10 - 2952 votes \n\nCast:\nJosh Lucas  ...  Lt. Ben Gannon  \nJessica Biel  ...  Lt. Kara Wade  \nJamie Foxx  ...  Lt. Henry Purcell  \nSam Shepard  ...  Capt. George Cummings  \nRichard Roxburgh  ...  Dr. Keith Orbit  \nJoe Morton  ...  Capt. Dick Marshfield  \nIan Bliss  ...  Lt. Aaron Shaftsbury  \nEbon Moss-Bachrach  ...  Tim  \nMichael Denkha  ...  Naval Controller  \nRocky Helton  ...  Master at Arms  \nClayton Adams  ...  USS Abraham Lincoln Sailor  \nMaurice Morgan  ...  USS Abraham Lincoln Sailor  \nWoody Naismith  ...  USS Abraham Lincoln Sailor (as Christopher Naismith)  \nCharles Ndibe  ...  USS Abraham Lincoln Sailor  \nNicholas Hammond  ...  Executive Officer  \n\nPlot:\nDeeply ensconced in a top-secret military program, three pilots struggle to bring an artificial intelligence program under control ... before it initiates the next world war.\n\nSpecifications:\nGeneral\nFormat                           : Matroska\nOverall bit rate                 : 13.4 Mbps\nEncoded date                     : UTC 2010-10-27 13:03:24\n\nVideo\nFormat                           : AVC\nFormat/Info                      : Advanced Video Codec\nFormat profile                   : &lt;a class=&quot;__cf_email__&quot; href=&quot;/cdn-cgi/l/email-protection&quot; data-cfemail=&quot;125a7b757a525e263c23&quot;&gt;[email&amp;#160;protected]&lt;/a&gt;&lt;script cf-hash='f9e31' type=&quot;text/javascript&quot;&gt;\n/* &lt;![CDATA[ */!function(){try{var t=&quot;currentScript&quot;in document?document.currentScript:function(){for(var t=document.getElementsByTagName(&quot;script&quot;),e=t.length;e--;)if(t[e].getAttribute(&quot;cf-hash&quot;))return t[e]}();if(t&amp;&amp;t.previousSibling){var e,r,n,i,c=t.previousSibling,a=c.getAttribute(&quot;data-cfemail&quot;);if(a){for(e=&quot;&quot;,r=parseInt(a.substr(0,2),16),n=2;a.length-n;n+=2)i=parseInt(a.substr(n,2),16)^r,e+=String.fromCharCode(i);e=document.createTextNode(e),c.parentNode.replaceChild(e,c)}}}catch(u){}}();/* ]]&gt; */&lt;/script&gt;\nFormat settings, CABAC           : Yes\nFormat settings, ReFrames        : 5 frames\nMuxing mode                      : Container profile=&lt;a class=&quot;__cf_email__&quot; href=&quot;/cdn-cgi/l/email-protection&quot; data-cfemail=&quot;de8bb0b5b0b1a9b09eeaf0ef&quot;&gt;[email&amp;#160;protected]&lt;/a&gt;&lt;script cf-hash='f9e31' type=&quot;text/javascript&quot;&gt;\n/* &lt;![CDATA[ */!function(){try{var t=&quot;currentScript&quot;in document?document.currentScript:function(){for(var t=document.getElementsByTagName(&quot;script&quot;),e=t.length;e--;)if(t[e].getAttribute(&quot;cf-hash&quot;))return t[e]}();if(t&amp;&amp;t.previousSibling){var e,r,n,i,c=t.previousSibling,a=c.getAttribute(&quot;data-cfemail&quot;);if(a){for(e=&quot;&quot;,r=parseInt(a.substr(0,2),16),n=2;a.length-n;n+=2)i=parseInt(a.substr(n,2),16)^r,e+=String.fromCharCode(i);e=document.createTextNode(e),c.parentNode.replaceChild(e,c)}}}catch(u){}}();/* ]]&gt; */&lt;/script&gt;\nCodec ID                         : V_MPEG4/ISO/AVC\nDuration                         : 2h 0mn\nBit rate                         : 11.4 Mbps\nWidth                            : 1 920 pixels\nHeight                           : 800 pixels\nDisplay aspect ratio             : 2.40:1\nFrame rate                       : 23.976 fps\n\nAudio 1\nFormat                           : DTS\nFormat/Info                      : Digital Theater Systems\nCodec ID                         : A_DTS\nBit rate mode                    : Constant\nBit rate                         : 1 510 Kbps\nChannel(s)                       : 6 channels\nChannel positions                : Front: L C R, Side: L R, LFE\nSampling rate                    : 48.0 KHz\nBit depth                        : 24 bits\nStream size                      : 1.27 GiB (11%)\nTitle                            : English\n\nAudio 2\nFormat                           : AC-3\nFormat/Info                      : Audio Coding 3\nMode extension                   : CM (complete main)\nCodec ID                         : A_AC3\nBit rate mode                    : Constant\nBit rate                         : 448 Kbps\nChannel(s)                       : 6 channels\nChannel positions                : Front: L C R, Side: L R, LFE\nSampling rate                    : 48.0 KHz\nStream size                      : 387 MiB (3%)\nTitle                            : Polish\nLanguage                         : Polish\n\nText 1\nFormat                           : UTF-8\nCodec ID                         : S_TEXT/UTF8\nCodec ID/Info                    : UTF-8 Plain Text\nTitle                            : English\n\nText 2\nFormat                           : UTF-8\nCodec ID                         : S_TEXT/UTF8\nCodec ID/Info            ","torrent":{"xt":"urn:btih:1fb991a00268b34b63014f49671a96396a5bc624","amp;dn":"Stealth%2A2005%2A%5BBluRay%5D%5B1080p%5D%5BENG%2C+POL%5D","amp;tr":["udp%3A%2F%2Ftracker.openbittorrent.com%3A80","udp%3A%2F%2Fopen.demonii.com%3A1337","udp%3A%2F%2Ftracker.coppersurfer.tk%3A6969","udp%3A%2F%2Fexodus.desync.com%3A6969"],"infoHash":"1fb991a00268b34b63014f49671a96396a5bc624","infoHashBuffer":{"type":"Buffer","data":[31,185,145,160,2,104,179,75,99,1,79,73,103,26,150,57,106,91,198,36]},"announce":[],"urlList":[]}}